<mxfile host="app.diagrams.net" modified="2020-08-09T20:17:31.630Z" agent="5.0 (Macintosh; Intel Mac OS X 10_15_5) AppleWebKit/605.1.15 (KHTML, like Gecko) Version/13.1.1 Safari/605.1.15" etag="O0Eb-1VoA5VKZBCR5Lv_" compressed="false" version="13.6.2" type="github">
  <diagram name="Page-1" id="74e2e168-ea6b-b213-b513-2b3c1d86103e">
    <mxGraphModel dx="925" dy="634" grid="1" gridSize="10" guides="1" tooltips="1" connect="1" arrows="1" fold="1" page="1" pageScale="1" pageWidth="1654" pageHeight="1169" background="#ffffff" math="0" shadow="0">
      <root>
        <mxCell id="0" />
        <mxCell id="1" parent="0" />
        <mxCell id="4UiRcspPQ9_xsY6W7M90-46" value="DSHOT Telemetry&#xa;Data" style="swimlane;startSize=40;fontColor=#FF00FF;" parent="1" vertex="1">
          <mxGeometry x="70" y="80" width="200" height="800" as="geometry" />
        </mxCell>
        <mxCell id="4UiRcspPQ9_xsY6W7M90-55" value="ESC" style="rounded=1;whiteSpace=wrap;html=1;absoluteArcSize=1;arcSize=14;strokeWidth=2;dashed=1;" parent="4UiRcspPQ9_xsY6W7M90-46" vertex="1">
          <mxGeometry x="15" y="70" width="170" height="40" as="geometry" />
        </mxCell>
        <mxCell id="4UiRcspPQ9_xsY6W7M90-47" value="Gyro Data (RPY)" style="swimlane;startSize=40;fontColor=#FF0000;" parent="1" vertex="1">
          <mxGeometry x="270" y="80" width="200" height="800" as="geometry" />
        </mxCell>
        <mxCell id="4UiRcspPQ9_xsY6W7M90-48" value="HW - DLPF" style="rounded=1;whiteSpace=wrap;html=1;absoluteArcSize=1;arcSize=14;strokeWidth=2;dashed=1;" parent="4UiRcspPQ9_xsY6W7M90-47" vertex="1">
          <mxGeometry x="15" y="70" width="170" height="40" as="geometry" />
        </mxCell>
        <mxCell id="4UiRcspPQ9_xsY6W7M90-49" value="RC-Throttle" style="swimlane;startSize=40;fontColor=#3333FF;" parent="1" vertex="1">
          <mxGeometry x="470" y="80" width="200" height="800" as="geometry" />
        </mxCell>
        <mxCell id="4UiRcspPQ9_xsY6W7M90-50" value="Throttle signal" style="rounded=1;whiteSpace=wrap;html=1;absoluteArcSize=1;arcSize=14;strokeWidth=2;dashed=1;" parent="4UiRcspPQ9_xsY6W7M90-49" vertex="1">
          <mxGeometry x="15" y="70" width="170" height="40" as="geometry" />
        </mxCell>
        <mxCell id="4UiRcspPQ9_xsY6W7M90-51" value="RC-Command (R/P/Y)" style="swimlane;startSize=40;fontColor=#FF8000;" parent="1" vertex="1">
          <mxGeometry x="670" y="80" width="200" height="800" as="geometry" />
        </mxCell>
        <mxCell id="4UiRcspPQ9_xsY6W7M90-52" value="Roll / Pitch / YAW signals" style="rounded=1;whiteSpace=wrap;html=1;absoluteArcSize=1;arcSize=14;strokeWidth=2;dashed=1;" parent="4UiRcspPQ9_xsY6W7M90-51" vertex="1">
          <mxGeometry x="15" y="70" width="170" height="40" as="geometry" />
        </mxCell>
        <mxCell id="4UiRcspPQ9_xsY6W7M90-53" value="VBAT" style="swimlane;startSize=40;fontColor=#999900;" parent="1" vertex="1">
          <mxGeometry x="1070" y="80" width="410" height="200" as="geometry" />
        </mxCell>
        <mxCell id="4UiRcspPQ9_xsY6W7M90-54" value="ADC" style="rounded=1;whiteSpace=wrap;html=1;absoluteArcSize=1;arcSize=14;strokeWidth=2;dashed=1;" parent="4UiRcspPQ9_xsY6W7M90-53" vertex="1">
          <mxGeometry x="15" y="70" width="170" height="40" as="geometry" />
        </mxCell>
        <mxCell id="4UiRcspPQ9_xsY6W7M90-56" value="M" style="verticalLabelPosition=middle;shadow=0;dashed=0;align=center;html=1;verticalAlign=middle;strokeWidth=1;shape=ellipse;fontSize=32;perimeter=ellipsePerimeter;" parent="1" vertex="1">
          <mxGeometry x="1482.78" y="690" width="100" height="100" as="geometry" />
        </mxCell>
        <mxCell id="4UiRcspPQ9_xsY6W7M90-65" style="edgeStyle=orthogonalEdgeStyle;rounded=0;orthogonalLoop=1;jettySize=auto;html=1;" parent="1" source="4UiRcspPQ9_xsY6W7M90-64" target="4UiRcspPQ9_xsY6W7M90-56" edge="1">
          <mxGeometry relative="1" as="geometry" />
        </mxCell>
        <mxCell id="w2lD-hBrVrexgJdN9BYj-1" value="PID-Controller" style="swimlane;startSize=40;fontColor=#FF8000;" vertex="1" parent="1">
          <mxGeometry x="870" y="80" width="200" height="800" as="geometry" />
        </mxCell>
        <mxCell id="w2lD-hBrVrexgJdN9BYj-3" value="P" style="rounded=1;whiteSpace=wrap;html=1;" vertex="1" parent="w2lD-hBrVrexgJdN9BYj-1">
          <mxGeometry x="65" y="190" width="70" height="60" as="geometry" />
        </mxCell>
        <mxCell id="w2lD-hBrVrexgJdN9BYj-4" value="I" style="rounded=1;whiteSpace=wrap;html=1;" vertex="1" parent="w2lD-hBrVrexgJdN9BYj-1">
          <mxGeometry x="65" y="505" width="70" height="60" as="geometry" />
        </mxCell>
        <mxCell id="w2lD-hBrVrexgJdN9BYj-5" value="D" style="rounded=1;whiteSpace=wrap;html=1;" vertex="1" parent="w2lD-hBrVrexgJdN9BYj-1">
          <mxGeometry x="65" y="355" width="70" height="60" as="geometry" />
        </mxCell>
        <mxCell id="w2lD-hBrVrexgJdN9BYj-6" value="" style="group" vertex="1" connectable="0" parent="1">
          <mxGeometry x="1478.78" y="405" width="111.22000000000003" height="145.71000000000004" as="geometry" />
        </mxCell>
        <UserObject label="Mixer" treeRoot="1" id="4UiRcspPQ9_xsY6W7M90-61">
          <mxCell style="whiteSpace=wrap;html=1;align=center;treeFolding=1;treeMoving=1;newEdgeStyle={&quot;edgeStyle&quot;:&quot;elbowEdgeStyle&quot;,&quot;startArrow&quot;:&quot;none&quot;,&quot;endArrow&quot;:&quot;none&quot;};rounded=0;rotation=0;" parent="w2lD-hBrVrexgJdN9BYj-6" vertex="1">
            <mxGeometry width="111.22" height="120" as="geometry" />
          </mxCell>
        </UserObject>
        <UserObject label="&lt;i&gt;&lt;font&gt;thrust_linear (4.0)&lt;/font&gt;&lt;/i&gt;" treeRoot="1" id="4UiRcspPQ9_xsY6W7M90-64">
          <mxCell style="whiteSpace=wrap;html=1;align=center;treeFolding=1;treeMoving=1;newEdgeStyle={&quot;edgeStyle&quot;:&quot;elbowEdgeStyle&quot;,&quot;startArrow&quot;:&quot;none&quot;,&quot;endArrow&quot;:&quot;none&quot;};rounded=0;rotation=0;fontColor=#3333FF;" parent="w2lD-hBrVrexgJdN9BYj-6" vertex="1">
            <mxGeometry y="120" width="111.22" height="25.71" as="geometry" />
          </mxCell>
        </UserObject>
        <mxCell id="w2lD-hBrVrexgJdN9BYj-8" style="edgeStyle=orthogonalEdgeStyle;rounded=0;orthogonalLoop=1;jettySize=auto;html=1;" edge="1" parent="1" source="w2lD-hBrVrexgJdN9BYj-7" target="4UiRcspPQ9_xsY6W7M90-61">
          <mxGeometry relative="1" as="geometry" />
        </mxCell>
        <mxCell id="w2lD-hBrVrexgJdN9BYj-7" value="+" style="shape=or;whiteSpace=wrap;html=1;" vertex="1" parent="1">
          <mxGeometry x="1380" y="425" width="60" height="80" as="geometry" />
        </mxCell>
        <mxCell id="w2lD-hBrVrexgJdN9BYj-9" style="edgeStyle=orthogonalEdgeStyle;rounded=0;orthogonalLoop=1;jettySize=auto;html=1;entryX=0;entryY=0.25;entryDx=0;entryDy=0;entryPerimeter=0;" edge="1" parent="1" source="w2lD-hBrVrexgJdN9BYj-3" target="w2lD-hBrVrexgJdN9BYj-7">
          <mxGeometry relative="1" as="geometry" />
        </mxCell>
        <mxCell id="w2lD-hBrVrexgJdN9BYj-10" style="edgeStyle=orthogonalEdgeStyle;rounded=0;orthogonalLoop=1;jettySize=auto;html=1;entryX=0;entryY=0.5;entryDx=0;entryDy=0;entryPerimeter=0;" edge="1" parent="1" source="w2lD-hBrVrexgJdN9BYj-5" target="w2lD-hBrVrexgJdN9BYj-7">
          <mxGeometry relative="1" as="geometry" />
        </mxCell>
      </root>
    </mxGraphModel>
  </diagram>
</mxfile>
